HIERARCHY
ROOT Hips
{
  OFFSET 51.5162 86.5831 5.23392
  CHANNELS 6 Xposition Yposition Zposition Zrotation Xrotation Yrotation
  JOINT spine
  {
    OFFSET 0 6.84637 0.3937
    CHANNELS 3 Zrotation Xrotation Yrotation
    JOINT spine1
    {
      OFFSET 0 9.49621 0
      CHANNELS 3 Zrotation Xrotation Yrotation
      JOINT spine2
      {
        OFFSET 0 9.09909 0
        CHANNELS 3 Zrotation Xrotation Yrotation
        JOINT Neck
        {
          OFFSET 0 23.3612 1.11378
          CHANNELS 3 Zrotation Xrotation Yrotation
          JOINT Head
          {
            OFFSET 0 7.05802 0
            CHANNELS 3 Zrotation Xrotation Yrotation
            End Site
            {
              OFFSET 0 17.0844 -5.63419
            }
          }
        }
        JOINT RightShoulder
        {
          OFFSET -3.83136 9.82631 -0.533491
          CHANNELS 3 Zrotation Xrotation Yrotation
          JOINT RightArm
          {
            OFFSET 0 12.8881 0
            CHANNELS 3 Zrotation Xrotation Yrotation
            JOINT RightArmRoll
            {
              OFFSET 0 6.50617 0
              CHANNELS 3 Zrotation Xrotation Yrotation
              JOINT RightForeArm
              {
                OFFSET 0 18.9501 0
                CHANNELS 3 Zrotation Xrotation Yrotation
                JOINT RightForeArmRoll
                {
                  OFFSET 0 7.30092 0
                  CHANNELS 3 Zrotation Xrotation Yrotation
                  JOINT RightHand
                  {
                    OFFSET 0 14.6514 0
                    CHANNELS 3 Zrotation Xrotation Yrotation
                    End Site
                    {
                      OFFSET 0 0 0
                    }
                  }
                }
              }
            }
          }
        }
        JOINT LeftShoulder
        {
          OFFSET 3.83136 9.82631 -0.533491
          CHANNELS 3 Zrotation Xrotation Yrotation
          JOINT LeftArm
          {
            OFFSET 0 12.8881 0
            CHANNELS 3 Zrotation Xrotation Yrotation
            JOINT LeftArmRoll
            {
              OFFSET 0 6.50616 0
              CHANNELS 3 Zrotation Xrotation Yrotation
              JOINT LeftForeArm
              {
                OFFSET 0 18.9501 0
                CHANNELS 3 Zrotation Xrotation Yrotation
                JOINT LeftForeArmRoll
                {
                  OFFSET 0 7.30092 0
                  CHANNELS 3 Zrotation Xrotation Yrotation
                  JOINT LeftHand
                  {
                    OFFSET 0 14.6514 0
                    CHANNELS 3 Zrotation Xrotation Yrotation
                    End Site
                    {
                      OFFSET 0 0 0
                    }
                  }
                }
              }
            }
          }
        }
      }
    }
  }
  JOINT RightUpLeg
  {
    OFFSET -6.06837 -1.11278 -0.933477
    CHANNELS 3 Zrotation Xrotation Yrotation
    JOINT RightUpLegRoll
    {
      OFFSET 0 17.1796 0
      CHANNELS 3 Zrotation Xrotation Yrotation
      JOINT RightLeg
      {
        OFFSET 0 -21.2743 0
        CHANNELS 3 Zrotation Xrotation Yrotation
        JOINT RightLegRoll
        {
          OFFSET 0 21.3439 0
          CHANNELS 3 Zrotation Xrotation Yrotation
          JOINT RightFoot
          {
            OFFSET 0 17.7652 0
            CHANNELS 3 Zrotation Xrotation Yrotation
            JOINT RightToeBase
            {
              OFFSET 0 14.8508 0
              CHANNELS 3 Zrotation Xrotation Yrotation
              End Site
              {
                OFFSET 0.0062947 7.19213 -0.829005
              }
            }
          }
        }
      }
    }
  }
  JOINT LeftUpLeg
  {
    OFFSET 6.06837 -1.11278 -0.933477
    CHANNELS 3 Zrotation Xrotation Yrotation
    JOINT LeftUpLegRoll
    {
      OFFSET 0 17.1797 0
      CHANNELS 3 Zrotation Xrotation Yrotation
      JOINT LeftLeg
      {
        OFFSET 0 21.2742 0
        CHANNELS 3 Zrotation Xrotation Yrotation
        JOINT LeftLegRoll
        {
          OFFSET 0 21.5412 0
          CHANNELS 3 Zrotation Xrotation Yrotation
          JOINT LeftFoot
          {
            OFFSET 0 17.5679 0
            CHANNELS 3 Zrotation Xrotation Yrotation
            JOINT LeftToeBase
            {
              OFFSET 0 14.8508 0
              CHANNELS 3 Zrotation Xrotation Yrotation
              End Site
              {
                OFFSET -0.0282102 7.19213 -0.829005
              }
            }
          }
        }
      }
    }
  }
}
MOTION
Frames: 12
Frame Time: 0.00208333
49.4879 86.718 3.16155 4.60428 -0.937767 10.1339 2.70154 1.26361 0.232305 5.4241 6.52576 0.052737 5.43572 8.16655 -0.0387287 -45.9286 26.8515 9.47159 31.2471 12.7832 -11.1926 11.8284 -0.0923823 8.37643 77.3276 80.6429 32.9791 5.82591e-007 2.38309e-007 -2.9597e-006 7.76882 2.63268 -0.714387 -9.25117e-007 2.17194e-006 -2.99693 8.0294 -4.95143 0.697699 -68.9763 -13.6191 8.12162 -78.813 3.42105 56.4095 1.90658e-005 -4.00587e-007 2.26455e-006 123.106 62.3043 -90.8805 -4.91817e-006 5.44818e-007 3.00042 -8.0292 -4.95143 -0.697685 175.339 15.0154 1.24575 180 7.01539e-015 178.889 175.575 26.4651 -179.369 -5.53619e-007 2.66626e-006 0.742126 -27.4518 72.8095 25.2408 8.13649 25.2327 -3.48774 177.721 11.5253 5.00401 4.54188e-006 -4.6773e-006 -1.00407 -0.162997 -18.6083 0.821687 1.96552e-006 -4.00893e-006 -0.356053 15.5002 68.9787 -20.2603 -8.13649 25.2327 3.48774 
49.4997 86.7153 3.16079 4.5728 -0.957704 10.0804 2.70016 1.24987 0.236474 5.42104 6.49851 0.0619562 5.4325 8.13931 -0.0294371 -45.7829 26.8677 9.46564 31.0748 12.7832 -11.1306 11.9703 -0.138211 8.27244 78.5594 80.5526 31.6255 5.82591e-007 2.38309e-007 -2.9597e-006 7.91492 3.01049 -0.762793 -9.25117e-007 2.17194e-006 -2.99696 8.0294 -4.95143 0.697699 -68.8972 -13.5735 8.10096 -78.8946 4.04819 56.1345 1.90658e-005 -4.00587e-007 2.26455e-006 122.828 62.6045 -90.9998 -4.91817e-006 5.44818e-007 3.00041 -8.0292 -4.95143 -0.697685 175.373 14.9892 1.22318 180 7.01539e-015 178.887 175.575 26.4426 -179.369 -5.53619e-007 2.66626e-006 0.74151 -27.4383 72.8038 25.2313 8.13649 25.2327 -3.48774 177.754 11.5185 4.97399 4.54188e-006 -4.6773e-006 -1.00401 -0.163215 -18.6533 0.823098 1.96552e-006 -4.00893e-006 -0.357377 15.5316 69.0102 -20.2858 -8.13649 25.2327 3.48774 
49.5269 86.7254 3.19752 4.54173 -0.978372 10.0272 2.69863 1.23633 0.240491 5.41771 6.47164 0.0708822 5.42901 8.11244 -0.0204347 -45.635 26.8825 9.45822 30.9005 12.7846 -11.069 12.1137 -0.185276 8.16669 79.7716 80.4586 30.2909 5.82591e-007 2.38309e-007 -2.9597e-006 8.05918 3.40481 -0.813597 -9.25117e-007 2.17194e-006 -2.99719 8.0294 -4.95143 0.697699 -68.8165 -13.5276 8.08013 -78.9767 4.69097 55.8493 1.90658e-005 -4.00587e-007 2.26455e-006 122.546 62.9121 -91.1255 -4.91817e-006 5.44818e-007 3.00041 -8.0292 -4.95143 -0.697685 175.407 14.9622 1.20098 180 7.01538e-015 178.886 175.575 26.4204 -179.37 -5.53619e-007 2.66626e-006 0.7409 -27.4249 72.7984 25.2222 8.13649 25.2327 -3.48774 177.785 11.511 4.9443 4.54188e-006 -4.6773e-006 -1.004 -0.163292 -18.6995 0.82455 1.96552e-006 -4.00893e-006 -0.358775 15.5646 69.0437 -20.313 -8.13649 25.2327 3.48774 
49.5359 86.7244 3.21227 4.51072 -0.999647 9.97426 2.69698 1.2229 0.244383 5.41412 6.44499 0.079571 5.42526 8.0858 -0.0116658 -45.4845 26.8967 9.44947 30.7238 12.7866 -11.0074 12.2596 -0.233151 8.05959 80.9609 80.3609 28.9771 5.82591e-007 2.38309e-007 -2.9597e-006 8.20207 3.81188 -0.866306 -9.25117e-007 2.17194e-006 -2.99759 8.0294 -4.95143 0.697699 -68.7336 -13.4813 8.05905 -79.0599 5.34782 55.5579 1.90658e-005 -4.00587e-007 2.26455e-006 122.259 63.2262 -91.2543 -4.91817e-006 5.44818e-007 3.00041 -8.0292 -4.95143 -0.697685 175.441 14.9343 1.1787 180 7.01538e-015 178.884 175.575 26.3983 -179.37 -5.53619e-007 2.66626e-006 0.740298 -27.4116 72.7932 25.2134 8.13649 25.2327 -3.48774 177.817 11.5031 4.9146 4.54188e-006 -4.6773e-006 -1.00403 -0.163245 -18.7469 0.826056 1.96552e-006 -4.00893e-006 -0.360239 15.5991 69.079 -20.3418 -8.13649 25.2327 3.48774 
49.5005 86.7176 3.19178 4.47941 -1.02141 9.92141 2.69521 1.20951 0.248176 5.4103 6.41843 0.0880788 5.42129 8.05924 -0.00307448 -45.3312 26.9111 9.43955 30.5443 12.7885 -10.9457 12.4092 -0.28141 7.95151 82.1238 80.2595 27.686 5.82591e-007 2.38309e-007 -2.9597e-006 8.34401 4.22798 -0.920423 -9.25117e-007 2.17194e-006 -2.9981 8.0294 -4.95143 0.697699 -68.6481 -13.4345 8.03768 -79.1447 6.0169 55.2641 1.90658e-005 -4.00587e-007 2.26455e-006 121.965 63.5458 -91.3828 -4.91817e-006 5.44818e-007 3.00041 -8.0292 -4.95143 -0.697685 175.475 14.9056 1.1559 180 7.01537e-015 178.882 175.575 26.3761 -179.371 -5.53619e-007 2.66626e-006 0.739704 -27.3982 72.7881 25.2047 8.13649 25.2327 -3.48774 177.849 11.4951 4.88455 4.54188e-006 -4.6773e-006 -1.00405 -0.163088 -18.7956 0.827629 1.96552e-006 -4.00893e-006 -0.361761 15.6349 69.1161 -20.3721 -8.13649 25.2327 3.48774 
49.5281 86.7224 3.20921 4.44745 -1.04353 9.86857 2.69333 1.19608 0.251899 5.40627 6.39178 0.0964616 5.41711 8.0326 0.0053951 -45.1746 26.9267 9.42859 30.3617 12.7894 -10.8836 12.5635 -0.329624 7.84285 83.2569 80.1542 26.4195 5.82591e-007 2.38309e-007 -2.9597e-006 8.48542 4.64935 -0.975448 -9.25117e-007 2.17194e-006 -2.99869 8.0294 -4.95143 0.697699 -68.5593 -13.3871 8.01595 -79.2319 6.69607 54.9717 1.90658e-005 -4.00587e-007 2.26455e-006 121.663 63.87 -91.5074 -4.91817e-006 5.44818e-007 3.00041 -8.0292 -4.95143 -0.697685 175.51 14.8764 1.13212 180 -7.01537e-015 178.881 175.576 26.3536 -179.371 -5.53619e-007 2.66626e-006 0.739121 -27.3848 72.7829 25.196 8.13649 25.2327 -3.48774 177.882 11.4872 4.85381 4.54188e-006 -4.6773e-006 -1.00403 -0.162838 -18.8456 0.829282 1.96552e-006 -4.00893e-006 -0.363334 15.6716 69.1546 -20.4036 -8.13649 25.2327 3.48774 
49.5764 86.726 3.25458 4.41447 -1.06588 9.81562 2.69135 1.18255 0.255579 5.40205 6.36492 0.104775 5.41274 8.00574 0.0137987 -45.0144 26.9441 9.41675 30.1757 12.7887 -10.8208 12.7237 -0.377365 7.73399 84.357 80.0451 25.1792 5.82591e-007 2.38309e-007 -2.9597e-006 8.62667 5.07226 -1.03088 -9.25117e-007 2.17194e-006 -2.9993 8.0294 -4.95143 0.697699 -68.4668 -13.3389 7.99379 -79.3227 7.38288 54.6843 1.90658e-005 -4.00587e-007 2.26455e-006 121.349 64.1977 -91.6242 -4.91817e-006 5.44818e-007 3.00041 -8.0292 -4.95143 -0.697685 175.548 14.8466 1.10691 180 7.01537e-015 178.879 175.577 26.3306 -179.372 -5.53619e-007 2.66626e-006 0.73855 -27.3711 72.7777 25.1871 8.13649 25.2327 -3.48774 177.917 11.4799 4.82204 4.54188e-006 -4.6773e-006 -1.00396 -0.162509 -18.8971 0.831026 1.96552e-006 -4.00893e-006 -0.364948 15.7092 69.1944 -20.4363 -8.13649 25.2327 3.48774 
49.5829 86.7356 3.26248 4.38014 -1.08835 9.76245 2.6893 1.16883 0.259242 5.39767 6.33769 0.113076 5.4082 7.97852 0.0221921 -44.8502 26.9642 9.40418 29.9858 12.7856 -10.7572 12.8907 -0.424203 7.62532 85.4209 79.9323 23.9668 5.82591e-007 2.38309e-007 -2.9597e-006 8.76811 5.49298 -1.08621 -9.25117e-007 2.17194e-006 -2.9999 8.0294 -4.95143 0.697699 -68.37 -13.2898 7.97116 -79.4183 8.07462 54.4053 1.90658e-005 -4.00587e-007 2.26455e-006 121.023 64.5281 -91.7292 -4.91817e-006 5.44818e-007 3.00041 -8.0292 -4.95143 -0.697685 175.587 14.8164 1.07984 180 7.01536e-015 178.877 175.579 26.3069 -179.373 -5.53619e-007 2.66626e-006 0.737992 -27.3573 72.7722 25.1779 8.13649 25.2327 -3.48774 177.953 11.4733 4.7889 4.54188e-006 -4.6773e-006 -1.00379 -0.162117 -18.95 0.832875 1.96552e-006 -4.00893e-006 -0.366598 15.7473 69.2352 -20.47 -8.13649 25.2327 3.48774 
49.6056 86.73 3.28509 4.34409 -1.11081 9.70895 2.68717 1.15485 0.262916 5.39314 6.30993 0.12142 5.40351 7.95077 0.0306309 -44.6817 26.9878 9.39101 29.7917 12.7794 -10.6925 13.0657 -0.46971 7.51722 86.4454 79.8156 22.7838 5.82591e-007 2.38309e-007 -2.9597e-006 8.91006 5.90775 -1.14093 -9.25117e-007 2.17194e-006 -3.00044 8.0294 -4.95143 0.697699 -68.2685 -13.2398 7.94799 -79.52 8.7683 54.1382 1.90658e-005 -4.00587e-007 2.26455e-006 120.681 64.8603 -91.818 -4.91817e-006 5.44818e-007 3.0004 -8.0292 -4.95143 -0.697685 175.63 14.7858 1.05046 180 7.01536e-015 178.875 175.581 26.2822 -179.374 -5.53619e-007 2.66626e-006 0.737448 -27.3431 72.7664 25.1682 8.13649 25.2327 -3.48774 177.992 11.4677 4.75404 4.54188e-006 -4.6773e-006 -1.00351 -0.161677 -19.0046 0.834842 1.96552e-006 -4.00893e-006 -0.368274 15.7858 69.277 -20.5046 -8.13649 25.2327 3.48774 
49.5855 86.7289 3.29319 4.30597 -1.13313 9.65501 2.68498 1.14054 0.266629 5.38849 6.28151 0.129863 5.39871 7.92236 0.039171 -44.5085 27.0157 9.3774 29.593 12.7692 -10.6264 13.2498 -0.513455 7.41009 87.4276 79.6952 21.6316 5.82591e-007 2.38309e-007 -2.9597e-006 9.05282 6.31286 -1.19453 -9.25117e-007 2.17194e-006 -3.00088 8.0294 -4.95143 0.697699 -68.1616 -13.1887 7.92422 -79.6295 9.46068 53.886 1.90658e-005 -4.00587e-007 2.26455e-006 120.32 65.1933 -91.8858 -4.91817e-006 5.44818e-007 3.0004 -8.0292 -4.95143 -0.697685 175.675 14.755 1.01831 180 -7.01535e-015 178.873 175.583 26.2564 -179.376 -5.53619e-007 2.66626e-006 0.736921 -27.3286 72.7602 25.1579 8.13649 25.2327 -3.48774 178.034 11.4634 4.71713 4.54188e-006 -4.6773e-006 -1.00307 -0.161203 -19.0608 0.836938 1.96552e-006 -4.00893e-006 -0.369969 15.8244 69.3195 -20.5399 -8.13649 25.2327 3.48774 
49.6027 86.7315 3.30791 4.26543 -1.15519 9.60051 2.68275 1.12581 0.270407 5.38375 6.25227 0.138461 5.3938 7.89312 0.047868 -44.3302 27.0487 9.3635 29.3895 12.7543 -10.5588 13.4441 -0.555007 7.30431 88.3646 79.5712 20.5117 5.82591e-007 2.38309e-007 -2.9597e-006 9.19664 6.70455 -1.24648 -9.25117e-007 2.17194e-006 -3.00117 8.0294 -4.95143 0.697699 -68.0488 -13.1364 7.89979 -79.7488 10.1483 53.6518 1.90658e-005 -4.00587e-007 2.26455e-006 119.938 65.5262 -91.9278 -4.91817e-006 5.44818e-007 3.0004 -8.0292 -4.95143 -0.697685 175.725 14.7241 0.982957 180 -7.01534e-015 178.87 175.587 26.2292 -179.377 -5.53619e-007 2.66626e-006 0.736412 -27.3136 72.7534 25.1469 8.13649 25.2327 -3.48774 178.079 11.4607 4.67782 4.54188e-006 -4.6773e-006 -1.00246 -0.160712 -19.1188 0.839177 1.96552e-006 -4.00893e-006 -0.371675 15.8628 69.3625 -20.5757 -8.13649 25.2327 3.48774 
49.6129 86.7319 3.3243 4.22211 -1.17687 9.54535 2.68048 1.11061 0.274278 5.37892 6.22207 0.147269 5.38881 7.86293 0.0567776 -44.1464 27.0876 9.34945 29.1807 12.734 -10.4895 13.6497 -0.593935 7.20027 89.2535 79.4435 19.4252 5.82591e-007 2.38309e-007 -2.9597e-006 9.34176 7.0791 -1.29625 -9.25117e-007 2.17194e-006 -3.00128 8.0294 -4.95143 0.697699 -67.9297 -13.0828 7.87464 -79.8796 10.8275 53.4384 1.90658e-005 -4.00587e-007 2.26455e-006 119.53 65.8581 -91.9388 -4.91817e-006 5.44818e-007 3.0004 -8.0292 -4.95143 -0.697685 175.78 14.6931 0.943949 180 7.01534e-015 178.867 175.591 26.2004 -179.379 -5.53619e-007 2.66626e-006 0.735922 -27.298 72.7461 25.135 8.13649 25.2327 -3.48774 178.128 11.4599 4.63577 4.54188e-006 -4.6773e-006 -1.00164 -0.160218 -19.1786 0.841573 1.96552e-006 -4.00893e-006 -0.373384 15.9009 69.4058 -20.6119 -8.13649 25.2327 3.48774 
